<svg xmlns="http://www.w3.org/2000/svg" style="display:none;">
  <!-- Home icon -->
  <symbol id="home" viewBox="0 0 24 24">
    <path d="M10 20v-6h4v6h5v-8h3L12 3 2 12h3v8z"/>
  </symbol>

  <!-- Success / circle check icon -->
  <symbol id="success" viewBox="0 0 24 24" fill="none" stroke="#22b62a" stroke-width="2" stroke-linecap="round"
          stroke-linejoin="round">
    <circle cx="12" cy="12" r="10"/>
    <path d="m9 12 2 2 4-4"/>
  </symbol>

  <!-- Error -->
  <symbol id="error" viewBox="0 0 24 24" fill="none" stroke="#DF2935" stroke-width="2" stroke-linecap="round"
          stroke-linejoin="round">
    <path d="m2 2 20 20"/>
    <path d="M8.35 2.69A10 10 0 0 1 21.3 15.65"/>
    <path d="M19.08 19.08A10 10 0 1 1 4.92 4.92"/>
  </symbol>

  <!-- Trash -->
  <symbol id="trash" xmlns="http://www.w3.org/2000/svg" width="24" height="24" viewBox="0 0 24 24" fill="none"
          stroke="currentColor" stroke-width="2" stroke-linecap="round" stroke-linejoin="round"
          class="lucide lucide-trash2-icon lucide-trash-2">
    <path d="M10 11v6"/>
    <path d="M14 11v6"/>
    <path d="M19 6v14a2 2 0 0 1-2 2H7a2 2 0 0 1-2-2V6"/>
    <path d="M3 6h18"/>
    <path d="M8 6V4a2 2 0 0 1 2-2h4a2 2 0 0 1 2 2v2"/>
  </symbol>


</svg>
